PathFileType	4	(X/Y/Z)	S01_0003_Gait_markers.trc
DataRate	CameraRate	NumFrames	NumMarkers	Units	OrigDataRate	OrigDataStartFrame	OrigNumFrames
250.000000	250.000000	4	54	mm	250.000000	78	314
Frame#	Time	HEAD_ANT			R_HEAD			L_HEAD			C7			R_BACK			L_BACK			STERNUM			R_ACROMION			R_HUM_PROX			R_HUM_ANT			R_HUM_POST			R_ELBOW_LAT			R_ELBOW_MED			R_FOREARM			R_WIRST_LAT			R_WRITS_MED			R_HAND			L_ACROMION			L_HUM_PROX			L_HUM_ANT			L_HUM_POST			L_ELBOW_LAT			L_ELBOW_MED			L_FOREARM			L_WRIST_LAT			L_WIRST_MED			L_HAND			R_ILIAC			SACRUM			L_ILIAC			R_GTROCH			R_THIGH__1			R_THIGH_2			R_THIGH_3			R_THIGH_4			R_SHANK_1			R_SHANK_2			R_SHANK_3			R_SHANK_4			R_HEEL			R_FOOT_LAT			R_FOOT_MED			L_GTROCH			L_THIGH_1			L_THIGH_2			L_THIGH_3			L_THIGH_4			L_SHANK_1			L_SHANK_2			L_SHANK_3			L_SHANK_4			L_HEEL			L_FOOT_LAT			L_FOOT_MED			
		X1	Y1	Z1	X2	Y2	Z2	X3	Y3	Z3	X4	Y4	Z4	X5	Y5	Z5	X6	Y6	Z6	X7	Y7	Z7	X8	Y8	Z8	X9	Y9	Z9	X10	Y10	Z10	X11	Y11	Z11	X12	Y12	Z12	X13	Y13	Z13	X14	Y14	Z14	X15	Y15	Z15	X16	Y16	Z16	X17	Y17	Z17	X18	Y18	Z18	X19	Y19	Z19	X20	Y20	Z20	X21	Y21	Z21	X22	Y22	Z22	X23	Y23	Z23	X24	Y24	Z24	X25	Y25	Z25	X26	Y26	Z26	X27	Y27	Z27	X28	Y28	Z28	X29	Y29	Z29	X30	Y30	Z30	X31	Y31	Z31	X32	Y32	Z32	X33	Y33	Z33	X34	Y34	Z34	X35	Y35	Z35	X36	Y36	Z36	X37	Y37	Z37	X38	Y38	Z38	X39	Y39	Z39	X40	Y40	Z40	X41	Y41	Z41	X42	Y42	Z42	X43	Y43	Z43	X44	Y44	Z44	X45	Y45	Z45	X46	Y46	Z46	X47	Y47	Z47	X48	Y48	Z48	X49	Y49	Z49	X50	Y50	Z50	X51	Y51	Z51	X52	Y52	Z52	X53	Y53	Z53	X54	Y54	Z54	

79	0.312	650.218994140625	282.5288696289062	1745.792724609375	590.1464233398438	206.9601593017578	1695.015625	590.2574462890625	354.1842346191406	1702.436645507812	447.2496337890625	287.3965759277344	1530.928833007812	375.8187255859375	219.6942596435547	1334.141235351562	376.2240295410156	362.7234802246094	1336.01611328125	623.694091796875	285.8563842773438	1368.582641601562	525.0379028320312	114.4028091430664	1479.834838867188	498.1956176757812	22.35144805908203	1317.418823242188	563.0977783203125	26.82316970825195	1234.01171875	443.0787963867188	6.942108631134033	1231.279541015625	494.0273132324219	7.021749019622803	1127.4853515625	462.8651428222656	84.08506774902344	1124.307739257812	603.058837890625	17.58087539672852	949.3577880859375	640.8253173828125	61.10216522216797	886.1693725585938	578.5911865234375	16.6721134185791	859.3458251953125	653.7073364257812	9.708823204040527	797.0889892578125	530.3697509765625	455.3534240722656	1487.69873046875	511.9556884765625	551.6766967773438	1319.835083007812	571.9262084960938	544.816650390625	1237.862670898438	452.4739990234375	577.2887573242188	1243.335815429688	507.7072448730469	580.2007446289062	1137.537475585938	455.7803649902344	525.3076782226562	1136.929809570312	611.631591796875	561.4503173828125	961.0827026367188	644.507080078125	509.2425537109375	901.4678344726562	597.7789306640625	571.182861328125	878.853271484375	675.566650390625	558.8081665039062	825.390380859375	526.6463623046875	118.5486907958984	1085.039184570312	393.9487609863281	284.5003967285156	1053.299438476562	514.9004516601562	460.9400939941406	1075.743896484375	478.8534851074219	104.8211135864258	933.66796875	519.7427368164062	132.1492004394531	653.7338256835938	575.8709716796875	128.8570556640625	670.7286376953125	581.8116455078125	165.7694854736328	570.09130859375	517.5238037109375	154.5413665771484	574.01318359375	494.1665954589844	155.1193695068359	347.8720092773438	546.1047973632812	175.1627197265625	323.5227966308594	534.1718139648438	194.5678405761719	240.2281494140625	472.2389526367188	179.1737060546875	250.5095062255859	407.833740234375	264.0653381347656	49.34360504150391	570.2374877929688	178.6426086425781	19.48874473571777	626.5267944335938	282.7459106445312	29.17781066894531	484.3598327636719	467.2197265625	959.7332153320312	633.5587768554688	481.4058227539062	689.806884765625	576.1558837890625	492.1938171386719	700.0875244140625	583.6541748046875	475.0477294921875	594.669921875	646.0608520507812	470.9865112304688	608.771240234375	495.7392883300781	465.9105224609375	372.5586547851562	440.1590576171875	461.100830078125	395.3553161621094	382.0770568847656	442.933349609375	332.0780944824219	433.6628112792969	442.879638671875	293.4109802246094	236.9730529785156	362.1001892089844	217.9317932128906	338.519287109375	444.8659057617188	83.25663757324219	378.6621704101562	354.4953308105469	68.47555541992188	
80	0.316	655.7076416015625	282.7831420898438	1746.176513671875	595.5491943359375	207.0862579345703	1695.603515625	595.322509765625	354.3445434570312	1702.835083007812	452.5767517089844	287.2184448242188	1531.390258789062	381.4221801757812	219.7502746582031	1334.751220703125	381.1131896972656	362.5417175292969	1336.415771484375	629.0055541992188	286.6493530273438	1369.162963867188	530.7785034179688	114.4780502319336	1480.445678710938	504.4630432128906	22.0638370513916	1317.923217773438	569.5406494140625	26.84506225585938	1234.78564453125	449.6179504394531	6.291374683380127	1231.865234375	500.9851379394531	6.503457069396973	1128.173217773438	468.858154296875	83.42964935302734	1124.952514648438	610.5758056640625	17.82214546203613	950.4600219726562	648.3135986328125	61.56076431274414	887.5119018554688	586.311767578125	16.71870803833008	860.4268798828125	661.8111572265625	10.06326484680176	798.4338989257812	535.3712768554688	455.466552734375	1488.065063476562	516.5326538085938	551.9016723632812	1320.476684570312	576.213623046875	545.3272705078125	1238.3173828125	456.6879577636719	577.325439453125	1243.953979492188	511.7067260742188	580.4718017578125	1137.993530273438	460.0415344238281	525.5606079101562	1137.400634765625	615.203125	562.45068359375	961.5785522460938	648.59423828125	510.4635620117188	901.7828369140625	601.4490356445312	571.802001953125	879.3049926757812	679.1879272460938	560.0004272460938	825.7487182617188	531.9866943359375	118.4614105224609	1084.99560546875	399.49560546875	283.8167114257812	1053.755615234375	520.2474975585938	460.5010681152344	1076.62353515625	483.718994140625	104.9277877807617	934.1810302734375	522.0819702148438	132.2056427001953	654.1563110351562	578.4026489257812	128.4524993896484	670.76416015625	583.70263671875	165.3804779052734	570.158447265625	519.3636474609375	154.2921905517578	574.4832763671875	494.9018249511719	154.9910888671875	348.2662963867188	546.9060668945312	174.9456024169922	323.7937622070312	534.638671875	194.5643463134766	240.5165557861328	472.7436828613281	179.2600708007812	250.8374176025391	409.8775634765625	263.8205261230469	50.65591430664062	570.2723388671875	178.7075500488281	19.45811462402344	626.6343383789062	282.6788635253906	29.1565055847168	489.3773193359375	467.4109191894531	960.6689453125	641.2656860351562	481.2522888183594	691.504638671875	583.72314453125	492.3059692382812	701.3798828125	592.1461181640625	474.9798583984375	595.878173828125	654.3302001953125	470.596435546875	610.7893676757812	506.8308715820312	465.4698791503906	372.0706787109375	451.1447448730469	461.1415100097656	394.1631774902344	393.357666015625	442.6577453613281	330.3917236328125	446.0229797363281	442.3964233398438	292.1438293457031	250.0831604003906	361.9296569824219	213.2863006591797	355.0826721191406	444.6359558105469	81.16823577880859	398.6524658203125	355.3165893554688	67.37104797363281	
81	0.32	661.1439208984375	283.0035705566406	1746.687866210938	601.0374145507812	207.1161651611328	1696.077026367188	600.741943359375	354.4266662597656	1703.238891601562	457.9675903320312	287.177001953125	1531.843383789062	386.9058837890625	219.0018463134766	1335.28857421875	386.2889404296875	362.5875244140625	1337.089477539062	634.33544921875	286.68310546875	1369.60400390625	536.537353515625	114.4623947143555	1481.002807617188	510.872314453125	21.66156387329102	1318.561767578125	575.972900390625	26.77640533447266	1235.52685546875	456.193115234375	5.631694793701172	1232.535888671875	507.0909423828125	6.039403915405273	1128.936279296875	475.2399597167969	82.94844055175781	1125.442749023438	617.9081420898438	17.92067337036133	951.611572265625	655.9259643554688	61.95269012451172	888.8433227539062	594.1767578125	16.75501823425293	861.3440551757812	670.0533447265625	10.44378089904785	799.89501953125	540.428955078125	455.4204711914062	1488.517578125	520.9884643554688	551.8727416992188	1320.98583984375	580.4634399414062	545.5176391601562	1238.757934570312	460.8645629882812	577.3140869140625	1244.563110351562	517.0081787109375	579.9530029296875	1137.84375	464.1063232421875	525.6336059570312	1138.074829101562	618.901611328125	563.2786254882812	961.8744506835938	652.5436401367188	511.2566528320312	902.0223388671875	604.9990844726562	572.6640625	879.6409912109375	682.69482421875	561.2252807617188	826.0360717773438	534.3417358398438	117.5155715942383	1084.635131835938	404.4497680664062	283.5895385742188	1054.367431640625	525.5811767578125	460.2304382324219	1077.630004882812	488.5272216796875	104.9065246582031	934.7227783203125	524.4755859375	131.7411041259766	654.6884765625	580.91064453125	128.2741241455078	670.8170776367188	585.2123413085938	166.2063446044922	570.1973876953125	521.0748291015625	154.5531616210938	574.8587646484375	495.6553344726562	154.9307250976562	348.6560363769531	547.6028442382812	174.7394256591797	324.1228942871094	535.1568603515625	194.4425506591797	240.9088592529297	473.3210144042969	179.2719268798828	251.2047576904297	408.1196594238281	263.5155639648438	51.38075256347656	570.290283203125	178.7662200927734	19.46154403686523	626.7617797851562	282.6556396484375	29.17780303955078	495.1937866210938	467.27685546875	961.5975952148438	648.9466552734375	481.0122985839844	693.0593872070312	591.43359375	492.33837890625	702.36376953125	600.7607421875	474.9360046386719	597.1360473632812	662.6848754882812	470.2071533203125	612.5228271484375	518.7674560546875	465.285400390625	371.4511108398438	461.8913269042969	460.92626953125	393.0776062011719	405.4136047363281	442.3348999023438	328.0843200683594	458.3467407226562	441.9521179199219	290.7311096191406	263.3078918457031	361.5891723632812	208.4840698242188	371.7862854003906	444.2868041992188	78.9056396484375	412.8883972167969	354.1668701171875	65.93521118164062	
82	0.324	666.5497436523438	283.27783203125	1747.089111328125	606.4588012695312	207.2752380371094	1696.542114257812	606.2124633789062	354.6676940917969	1703.638671875	463.2525329589844	287.0290832519531	1532.190185546875	392.0487365722656	217.8199462890625	1336.093139648438	391.4839782714844	362.4998168945312	1337.793334960938	639.6464233398438	286.7276306152344	1369.988403320312	542.2974243164062	114.4625549316406	1481.510375976562	517.220703125	21.36614227294922	1319.193115234375	582.4689331054688	26.8763370513916	1236.144287109375	462.6429748535156	5.127559661865234	1233.112060546875	514.0390625	5.616695880889893	1129.457763671875	481.58740234375	82.5504150390625	1125.909057617188	625.3363647460938	18.05441284179688	952.75634765625	663.5358276367188	62.33139419555664	890.2108154296875	602.1793212890625	17.04435539245605	862.3694458007812	678.2487182617188	11.05555725097656	801.2406616210938	545.4249267578125	455.5050964355469	1488.929809570312	525.1600952148438	552.0203247070312	1321.543823242188	584.7009887695312	545.94775390625	1239.04736328125	465.6041259765625	577.6766357421875	1245.011840820312	519.8745727539062	581.02685546875	1138.99755859375	468.4277648925781	525.56689453125	1138.708740234375	622.6665649414062	564.1343383789062	962.2938842773438	656.3831176757812	512.2737426757812	902.2596435546875	608.5117797851562	573.3047485351562	879.9125366210938	686.2335815429688	562.2860107421875	826.3057861328125	539.8636474609375	117.1970062255859	1084.731567382812	409.220703125	284.1613159179688	1055.077880859375	531.1224975585938	459.9229431152344	1078.353881835938	493.1524353027344	104.9751739501953	935.2044677734375	526.9229736328125	131.4737701416016	655.1528930664062	583.5399169921875	127.8666610717773	670.887939453125	587.1573486328125	165.7743072509766	570.1127319335938	523.031494140625	154.3186492919922	575.3292236328125	496.3925170898438	154.8661499023438	349.04345703125	548.3018798828125	174.5928955078125	324.4149475097656	535.6136474609375	194.4248809814453	241.1785583496094	473.8251037597656	179.2950439453125	251.6222686767578	408.2731628417969	263.6252746582031	52.03288269042969	570.3278198242188	178.7776947021484	19.45109176635742	626.8419189453125	282.5750427246094	29.19050979614258	500.8635559082031	467.1477966308594	962.2135620117188	656.7261352539062	480.82421875	694.7225952148438	599.1527099609375	492.4321594238281	703.4847412109375	609.14453125	474.8617858886719	598.3037719726562	670.8641967773438	469.7300720214844	614.3162231445312	530.0501708984375	464.6800231933594	370.8271484375	472.7174377441406	460.7411193847656	391.5706481933594	417.3056945800781	442.6582336425781	325.8872985839844	470.924560546875	441.4728088378906	289.4212036132812	276.8996276855469	361.3371276855469	203.6150817871094	388.4944763183594	443.9725036621094	76.75833892822266	432.5856628417969	355.2141723632812	65.15659332275391	
